# xmcd
#
# Track frame offsets: 
#        150
#        21184
#        38187
#        55423
#        77346
#        89792
#        104916
#        119252
#        133244
#        149365
#        161068
#        187064
#        200332
#        216177
#        230032
#        247036
#        261841
#
# Disc length: 3652 seconds
#
# Revision: 1
# Processed by: cddbd v1.5.2PL0 Copyright (c) Steve Scherf et al.
# Submitted via: ExactAudioCopy v1.0b4
#
DISCID=0a0e4211
DTITLE=Peter Green and Mick Green - Two Green Make A Blues
DYEAR=1998
DGENRE=Blues Rock
TTITLE0=All Quiet
TTITLE1=Chinese White Boy
TTITLE2=Rock And Roll Feeling
TTITLE3=Doctor
TTITLE4=Four Minute Melody
TTITLE5=Post Modern Blues
TTITLE6=Eprom Song
TTITLE7=Intensity Of Vision
TTITLE8=Camel's Eye Blues
TTITLE9=Way You Dance
TTITLE10=End Zone
TTITLE11=Nietzsche's Ass
TTITLE12=Who Do You Love
TTITLE13=Stab The Knife
TTITLE14=Rosy
TTITLE15=So Bad The Blues
TTITLE16=Monkey Man
EXTD=
EXTT0=
EXTT1=
EXTT2=
EXTT3=
EXTT4=
EXTT5=
EXTT6=
EXTT7=
EXTT8=
EXTT9=
EXTT10=
EXTT11=
EXTT12=
EXTT13=
EXTT14=
EXTT15=
EXTT16=
PLAYORDER=
